<?xml version="1.0" encoding="iso-8859-1"?>
<!-- Uploaded to: SVG Repo, www.svgrepo.com, Generator: SVG Repo Mixer Tools -->
<!DOCTYPE svg PUBLIC "-//W3C//DTD SVG 1.1//EN" "http://www.w3.org/Graphics/SVG/1.1/DTD/svg11.dtd">
<svg height="800px" width="800px" version="1.1" id="Capa_1" xmlns="http://www.w3.org/2000/svg" xmlns:xlink="http://www.w3.org/1999/xlink" 
	 viewBox="0 0 512 512" xml:space="preserve">
<g>
	<path style="fill:#003B54;" d="M507.311,4.69c-3.137-3.137-7.441-4.84-11.852-4.68C365.183,4.397,238.785,58.588,148.688,148.689
		C79.106,218.267,23.712,313.716,0.505,404.016c-1.41,5.48,0.184,11.297,4.184,15.297c4,4,9.816,5.59,15.293,4.184
		c17.221-4.424,37.67-8.353,57.076-11.178L4.688,484.688c-6.25,6.246-6.25,16.379,0,22.625C7.809,510.437,11.907,512,16.001,512
		s8.191-1.563,11.312-4.688l72.369-72.369c-2.824,19.406-6.754,39.855-11.178,57.076c-1.41,5.477,0.184,11.293,4.184,15.293
		C95.727,510.352,99.809,512,104,512c1.328,0,2.664-0.164,3.984-0.504c90.3-23.207,185.749-78.601,255.327-148.183
		c90.101-90.097,144.292-216.495,148.679-346.772C512.139,12.112,510.444,7.823,507.311,4.69z M38.934,386.399
		c24.98-77.136,73.234-155.941,132.378-215.085C245.898,96.729,347.12,48.467,453.999,35.377L113.049,376.327
		C91.762,377.538,64.46,381.282,38.934,386.399z M340.687,340.688c-59.144,59.144-137.949,107.398-215.085,132.378
		c5.117-25.525,8.861-52.828,10.072-74.115l340.95-340.949C463.534,164.881,415.272,266.103,340.687,340.688z"/>
	<g>
		<path style="fill:#F69348;" d="M476.624,58.002L135.674,398.952c-1.211,21.287-4.955,48.59-10.072,74.115
			c77.136-24.98,155.94-73.234,215.085-132.378C415.272,266.103,463.534,164.881,476.624,58.002z"/>
		<path style="fill:#F69348;" d="M171.313,171.314C112.168,230.458,63.915,309.263,38.934,386.399
			c25.525-5.117,52.828-8.861,74.115-10.073L453.999,35.377C347.12,48.467,245.898,96.728,171.313,171.314z"/>
	</g>
</g>
</svg>